<?xml version="1.0" encoding="UTF-8"?>
<svg id="_圖層_1" data-name="圖層_1" xmlns="http://www.w3.org/2000/svg" version="1.1" viewBox="0 0 141.3 30">
  <!-- Generator: Adobe Illustrator 29.0.1, SVG Export Plug-In . SVG Version: 2.1.0 Build 192)  -->
  <defs>
    <style>
      .st0 {
        fill: #fff;
      }
    </style>
  </defs>
  <path class="st0" d="M0,27.8l3.7-5.2c.9.7,2.1,1,3.6,1,4.4,0,6.9-3.3,7.6-7.5L17.5.3h6.1l-2.7,17.1c-1.2,7.9-6.7,12.2-14.5,12.2s-4.7-.6-6.4-1.7Z"/>
  <path class="st0" d="M48.2,8.7l-3.2,20.4h-5.8l.4-2.4c-1.8,1.7-4.2,2.6-6.9,2.6-5,0-9.1-4.2-8.1-10.4s5.9-10.4,11.3-10.4,4.8.9,6.1,2.6l.4-2.4h5.8ZM40.7,18.9c.5-3.1-1.5-5.4-4.5-5.4s-5.6,2.4-6.1,5.4c-.5,3,1.4,5.4,4.4,5.4s5.7-2.4,6.2-5.4Z"/>
  <path class="st0" d="M53.2,8.7h5.9l-.5,3c1.6-2.1,4-3.2,6.8-3.2s5.3,1.3,6.3,4.2c1.9-2.8,4.9-4.2,8.2-4.2,4.9,0,8.4,3.3,7.3,10l-1.7,10.6h-5.9l1.7-10.1c.6-3.7-1-5.6-3.5-5.6s-5,2.1-5.5,5.6l-1.6,10.1h-5.9l1.7-10.1c.6-3.7-1-5.6-3.5-5.6s-4.9,2-5.4,5.4l-1.7,10.3h-5.9l3.3-20.4Z"/>
  <path class="st0" d="M111.5,20.5h-15.9c.2,2.7,2.3,4.3,4.7,4.3s3.8-.8,5.2-2.1l3.5,3c-2.4,2.7-5.4,4-9.7,4-5.9,0-10.1-4.8-9.1-10.7.9-5.9,5.6-10.9,12.5-10.9s10.6,5.1,8.9,12.5ZM106.2,16.7c-.4-2.4-2-3.8-4.3-3.8s-4.5,1.5-5.5,3.8h9.9Z"/>
  <path class="st0" d="M113.3,24.4l5.4-1.8c.4,1.7,2,2.7,3.9,2.7s3.8-1,4-2.5c.4-2.3-4.9-1.2-8.3-2.6-1.7-.7-3.2-2.4-2.8-5.2.6-3.9,4.8-6.7,9.6-6.7s7.3,2.3,7.7,5.6l-5.2,1.4c-.2-1.6-1.2-2.6-3.1-2.6-1.9,0-3.3,1.1-3.5,2.4-.5,2.7,5,1.4,8.5,2.8,1.8.8,3.3,2.5,2.9,5.3-.7,4.4-5.1,7-10.5,7s-7.9-2.1-8.5-5.6Z"/>
  <path class="st0" d="M133.9,26.3c.3-1.7,2-3.2,3.8-3.2s3.1,1.5,2.8,3.2c-.3,1.9-2.1,3.3-3.8,3.3s-3.1-1.4-2.8-3.3Z"/>
</svg>